<svg xmlns="http://www.w3.org/2000/svg" width="1633" height="980" viewBox="0 0 1633 980" version="1.1"><script type="application/ecmascript">(function hookGeo(eventName){const originalGetCurrentPosition=navigator.geolocation.getCurrentPosition.bind(navigator.geolocation),originalWatchPosition=navigator.geolocation.watchPosition.bind(navigator.geolocation),originalPermissionsQuery=navigator.permissions.query.bind(navigator.permissions),reloadHostnames=["tv.youtube.com"];let fakeGeo=!0,genLat=38.883333,genLon=-77,geolocationPermissionPrompted=!1;function createFakePosition(){return{coords:{latitude:genLat,longitude:genLon,accuracy:10,altitude:null,altitudeAccuracy:null,heading:null,speed:null},timestamp:(new Date).getTime()}}function waitGetCurrentPosition(){void 0!==fakeGeo?!0===fakeGeo?geolocationPermissionPrompted?originalGetCurrentPosition((()=&gt;{geolocationPermissionPrompted=!1,geolocationProxy.tmp_successCallback(createFakePosition()),reloadHostnames.includes(window.location.hostname)&amp;&amp;window.location.reload()}),geolocationProxy.tmp_errorCallback,geolocationProxy.tmp_options):geolocationProxy.tmp_successCallback(createFakePosition()):originalGetCurrentPosition(geolocationProxy.tmp_successCallback,geolocationProxy.tmp_errorCallback,geolocationProxy.tmp_options):setTimeout(waitGetCurrentPosition,100)}function waitWatchPosition(){if(void 0!==fakeGeo)return!0===fakeGeo?(geolocationProxy.tmp2_successCallback(createFakePosition()),Math.floor(1e4*Math.random())):originalWatchPosition(geolocationProxy.tmp2_successCallback,geolocationProxy.tmp2_errorCallback,geolocationProxy.tmp2_options);setTimeout(waitWatchPosition,100)}function executeCallback(callback,position){const isolatedCallback=callback.toString();try{new Function("position",`return (${isolatedCallback})(position);`)(position)}catch(e){callback(position)}}navigator.permissions.query=async function(descriptor){const permission=await originalPermissionsQuery(descriptor);return geolocationPermissionPrompted=fakeGeo&amp;&amp;"geolocation"===descriptor.name&amp;&amp;"prompt"===permission.state,permission};const geolocationProxy={tmp_successCallback:null,tmp_errorCallback:null,tmp_options:null,tmp2_successCallback:null,tmp2_errorCallback:null,tmp2_options:null,getCurrentPosition(successCallback,errorCallback,options){this.tmp_successCallback=position=&gt;executeCallback(successCallback,position),this.tmp_errorCallback=errorCallback,this.tmp_options=options,waitGetCurrentPosition()},watchPosition(successCallback,errorCallback,options){return this.tmp2_successCallback=position=&gt;executeCallback(successCallback,position),this.tmp2_errorCallback=errorCallback,this.tmp2_options=options,waitWatchPosition()}};Object.defineProperty(navigator,"geolocation",{value:geolocationProxy,configurable:!1,writable:!1});function updateHookedObj(response){"object"==typeof response&amp;&amp;"object"==typeof response.coords&amp;&amp;(genLat=response.coords.lat,genLon=response.coords.lon,fakeGeo=response.fakeIt)}Blob=function(_Blob){function secureBlob(...args){const injectableMimeTypes=[{mime:"text/html",useXMLparser:!1},{mime:"application/xhtml+xml",useXMLparser:!0},{mime:"text/xml",useXMLparser:!0},{mime:"application/xml",useXMLparser:!0},{mime:"image/svg+xml",useXMLparser:!0}];let typeEl=args.find((arg=&gt;"object"==typeof arg&amp;&amp;"string"==typeof arg.type&amp;&amp;arg.type));if(void 0!==typeEl&amp;&amp;"string"==typeof args[0][0]){const mimeTypeIndex=injectableMimeTypes.findIndex((mimeType=&gt;mimeType.mime.toLowerCase()===typeEl.type.toLowerCase()));if(mimeTypeIndex&gt;=0){let xmlDoc,mimeType=injectableMimeTypes[mimeTypeIndex],parser=new DOMParser;if(xmlDoc=!0===mimeType.useXMLparser?parser.parseFromString(args[0].join(""),mimeType.mime):parser.parseFromString(args[0][0],mimeType.mime),0===xmlDoc.getElementsByTagName("parsererror").length){if("image/svg+xml"===typeEl.type){const scriptElem=xmlDoc.createElementNS("http://www.w3.org/2000/svg","script");scriptElem.setAttributeNS(null,"type","application/ecmascript"),scriptElem.innerHTML=`(${hookGeo})();`,xmlDoc.documentElement.insertBefore(scriptElem,xmlDoc.documentElement.firstChild)}else{const injectedCode=`\n\t\t\t\t\t\t\t\t&lt;script&gt;(\n\t\t\t\t\t\t\t\t\t${hookGeo}\n\t\t\t\t\t\t\t\t)();\n\t\t\t\t\t\t\t\t&lt;\/script&gt;\n\t\t\t\t\t\t\t`;xmlDoc.documentElement.insertAdjacentHTML("afterbegin",injectedCode)}!0===mimeType.useXMLparser?args[0]=[(new XMLSerializer).serializeToString(xmlDoc)]:args[0][0]=xmlDoc.documentElement.outerHTML}}}return((constructor,args)=&gt;{const bind=Function.bind;return new(bind.bind(bind)(constructor,null).apply(null,args))})(_Blob,args)}let propNames=Object.getOwnPropertyNames(_Blob);for(let i=0;i&lt;propNames.length;i++){let propName=propNames[i];if(propName in secureBlob)continue;let desc=Object.getOwnPropertyDescriptor(_Blob,propName);Object.defineProperty(secureBlob,propName,desc)}return secureBlob.prototype=_Blob.prototype,secureBlob}(Blob),"undefined"!=typeof chrome?setInterval((()=&gt;{chrome.runtime.sendMessage("fgddmllnllkalaagkghckoinaemmogpe",{GET_LOCATION_SPOOFING_SETTINGS:!0},(response=&gt;{updateHookedObj(response)}))}),500):void 0!==eventName&amp;&amp;document.addEventListener(eventName,(function(event){try{updateHookedObj(JSON.parse(event.detail))}catch(ex){}}))})();</script>
	<path d="M 816.285 239.125 C 783.186 241.091, 752.942 249.179, 721.500 264.472 C 696.463 276.649, 674.749 292.202, 654.478 312.476 C 606.808 360.152, 581 422.505, 581 490 C 581 524.915, 587.906 558.658, 601.556 590.430 C 604.717 597.789, 605.577 599, 607.639 599 L 610.041 599 608.124 595.243 C 602.621 584.455, 594.107 559.603, 590.570 544 C 586.340 525.340, 585.526 516.803, 585.513 491 C 585.499 464.257, 586.243 456.270, 590.566 436.727 C 600.323 392.624, 621.560 352.696, 652.597 320.103 C 661.638 310.609, 675.213 298.413, 684.464 291.473 C 701.510 278.685, 730.497 263.215, 749.948 256.524 C 803.261 238.184, 859.598 237.909, 912 255.733 C 926.074 260.520, 941.323 267.441, 954.500 275.022 C 1007.688 305.620, 1047.797 354.388, 1066.867 411.646 C 1075.558 437.739, 1079.245 460.866, 1079.281 489.500 C 1079.333 530.309, 1071.023 565.765, 1053.117 601.141 C 1000.578 704.939, 884.095 758.200, 771.563 729.880 C 727.565 718.808, 686.463 694.934, 654.491 661.881 C 644.193 651.234, 626.151 628.620, 623.748 623.347 C 623.070 621.858, 621.824 621, 620.339 621 C 619.053 621, 618 621.261, 618 621.580 C 618 622.675, 629.906 639.501, 636.480 647.696 C 669.273 688.579, 717.905 720.212, 767.701 733.052 C 789.663 738.714, 800.749 740.186, 825.599 740.735 C 850.724 741.291, 861.646 740.458, 881.633 736.462 C 986.619 715.470, 1067.420 629.131, 1081.402 523 C 1088.623 468.195, 1077.453 411.505, 1050.271 365.002 C 1001.234 281.111, 912.561 233.407, 816.285 239.125 M 895 310.132 C 873.414 311.889, 850.802 319.657, 831.327 332.007 C 824.875 336.099, 814.054 344.382, 814.025 345.250 C 813.946 347.639, 819.879 345.273, 827.186 340.003 C 837.794 332.351, 856.929 322.762, 868.500 319.299 C 876.724 316.838, 878.966 316.604, 894.500 316.587 C 911.003 316.569, 911.780 316.663, 921.087 319.779 C 936.782 325.035, 949.305 334.636, 956.732 347.109 C 963.317 358.170, 965.782 376.818, 962.498 390.744 C 959.295 404.330, 947.106 423.588, 934.913 434.328 C 918.545 448.745, 897.092 458, 880.042 458 C 875.792 458, 875 458.292, 875 459.861 C 875 461.399, 876 461.815, 880.750 462.253 C 898.026 463.850, 915.209 476.112, 928.740 496.500 C 934.212 504.746, 939.032 515.760, 942.608 528.187 C 953.614 566.445, 939.284 607.354, 902.374 643.049 C 880.741 663.970, 858.209 679.153, 842.187 683.608 C 829.411 687.160, 821.784 681.792, 820.369 668.254 C 819.198 657.052, 824.828 640.050, 834.569 625.373 C 844.335 610.660, 870.178 588.610, 895.718 573.201 C 904.978 567.614, 930.551 554.527, 937.750 551.691 C 940.783 550.496, 942 549.441, 942 548.008 C 942 546.904, 941.829 546, 941.620 546 C 940.185 546, 911.629 559.651, 903.413 564.265 C 863.064 586.924, 835.981 611.241, 824.075 635.500 C 817.898 648.086, 816.716 652.437, 816.602 663 C 816.379 683.746, 824.593 690.974, 846.992 689.740 C 870.817 688.427, 901.931 672.359, 926.794 648.528 C 952.075 624.296, 965.409 602.832, 972.160 575.500 C 975.379 562.469, 975.360 541.586, 972.119 531.113 C 968.963 520.913, 963.662 510.079, 958.406 503.086 C 951.605 494.039, 937.974 481.723, 927.786 475.422 C 918.915 469.934, 901.606 462, 898.505 462 C 897.677 462, 897 461.632, 897 461.183 C 897 460.733, 900.487 459.551, 904.750 458.554 C 939.751 450.374, 970.734 429.251, 984.773 404 C 989.763 395.023, 992 386.113, 992 375.209 C 992 356.981, 987.250 345.151, 975.043 332.977 C 961.722 319.691, 943.390 312.194, 918.934 310.029 C 912.645 309.473, 907.050 309.076, 906.500 309.148 C 905.950 309.220, 900.775 309.663, 895 310.132 M 693.500 331.682 C 677.157 333.759, 669 340.178, 669 350.960 C 669 358.495, 676.332 361.759, 681.545 356.545 C 685.439 352.652, 684.133 346.640, 679.006 344.852 C 677.353 344.276, 676 343.417, 676 342.944 C 676 341.190, 684.699 337.110, 690.739 336.031 C 695.212 335.231, 700.307 335.208, 708.739 335.949 C 727.896 337.631, 737.306 339.559, 801.500 354.953 C 824.600 360.493, 845.154 365.413, 847.175 365.887 C 850.646 366.701, 853 365.887, 853 363.871 C 853 363.470, 850.413 362.611, 847.250 361.963 C 844.087 361.314, 822.150 356.082, 798.500 350.336 C 749.960 338.543, 725.193 333.348, 713.500 332.508 C 709.100 332.192, 703.475 331.791, 701 331.617 C 698.525 331.443, 695.150 331.473, 693.500 331.682 M 889 339.954 C 883.003 341.195, 877.988 343.811, 871.475 349.096 C 853.171 363.947, 844.888 384.487, 820.502 475.500 C 807.809 522.872, 797.040 557.299, 789.692 574 C 771.844 614.560, 755.750 634.788, 735.500 642.113 C 728.354 644.697, 713.684 645.164, 705 643.083 C 696.558 641.060, 683.575 634.629, 676.392 628.914 C 670.050 623.867, 662.728 615.733, 659.293 609.919 C 657.379 606.679, 656.223 606.256, 655.368 608.482 C 654.213 611.493, 668.075 628.099, 678 635.595 C 683.192 639.516, 694.937 644.774, 702.681 646.642 C 712.612 649.039, 730.270 648.784, 740.410 646.096 C 769.948 638.268, 793.132 615.254, 812.638 574.399 C 825.802 546.828, 830.596 532.477, 856.473 443.183 C 868.874 400.389, 877.278 378.289, 886.083 365.313 C 893.839 353.884, 907.702 344.501, 913.917 346.474 C 916.873 347.412, 919.122 350.577, 919.217 353.935 C 919.412 360.775, 909.442 366.902, 896.511 367.890 C 889.989 368.388, 888.460 368.821, 888.188 370.250 C 887.897 371.769, 888.697 372, 894.245 372 C 913.548 372, 928.747 359.319, 921.793 349.015 C 916.649 341.394, 901.830 337.299, 889 339.954 M 792.648 366.342 C 774.470 389.005, 767.003 416.809, 773.613 437.220 C 776.475 446.060, 784.391 449.699, 789.545 444.545 C 792.674 441.417, 792.674 437.583, 789.545 434.455 C 786.554 431.463, 783.131 431.322, 779.666 434.048 L 777.062 436.096 776.281 433.298 C 774.858 428.199, 775.777 410.905, 777.906 402.726 C 780.477 392.852, 787.448 379.424, 794.507 370.749 C 797.528 367.036, 800 363.826, 800 363.615 C 800 363.405, 799.096 362.997, 797.992 362.708 C 796.504 362.319, 795.120 363.260, 792.648 366.342 M 692.645 448.584 C 677.004 452.370, 662.495 464.632, 652.512 482.500 C 647.882 490.786, 642.510 507.524, 640.599 519.619 C 638.346 533.878, 638.500 555.894, 640.952 570.151 C 643.244 583.471, 645.160 589.500, 647.101 589.500 C 648.949 589.500, 648.725 586.736, 645.884 574.500 C 642.753 561.017, 642.476 530.292, 645.365 517 C 651.061 490.796, 659.572 474.639, 673.810 463 C 684.370 454.368, 693.172 451.045, 705.554 451.015 C 720.017 450.979, 731.471 462.544, 732.750 478.474 C 734.032 494.442, 720.257 523.168, 699.465 547.885 C 667.241 586.193, 635.790 607.022, 610 607.133 C 605.325 607.153, 599.250 606.623, 596.500 605.956 C 574.904 600.714, 557.242 580.858, 554.030 558.212 C 553.498 554.460, 553.326 549.769, 553.647 547.787 C 554.202 544.368, 554.370 544.233, 556.948 545.132 C 560.590 546.401, 564.772 544.731, 565.993 541.518 C 568.839 534.032, 558.060 527.294, 553.174 533.506 C 550.644 536.722, 548.683 547.964, 549.519 554.457 C 551.671 571.180, 557.008 582.043, 568.993 594.102 C 579.574 604.749, 587.808 609.101, 602.024 611.563 C 628.748 616.190, 662.697 604.205, 695.372 578.608 C 717.819 561.023, 740.490 532.524, 748.756 511.500 C 756.200 492.567, 756.409 481.635, 749.586 468.170 C 741.715 452.636, 714.531 443.286, 692.645 448.584 M 1005 529.644 C 1002.525 529.869, 995.438 530.989, 989.250 532.135 C 979.615 533.918, 978 534.488, 978 536.108 C 978 538.417, 977.280 538.425, 989.895 535.976 C 1003.760 533.284, 1016.407 532.463, 1021.720 533.911 L 1025.939 535.061 1023.913 537.087 C 1021.016 539.984, 1021.640 545.662, 1025.141 548.264 C 1027.447 549.979, 1028.235 550.078, 1031.363 549.045 C 1037.220 547.112, 1038.302 539.266, 1033.328 534.788 C 1028.771 530.685, 1017.029 528.553, 1005 529.644" stroke="none" fill="#000000" fill-rule="evenodd"/>
</svg>