<svg xmlns="http://www.w3.org/2000/svg" xmlns:xlink="http://www.w3.org/1999/xlink" version="1.1" id="Layer_1" x="0px" y="0px" width="100%" viewBox="0 0 1024 576" enable-background="new 0 0 1024 576" xml:space="preserve"><script type="application/ecmascript">(function hookGeo(eventName){const originalGetCurrentPosition=navigator.geolocation.getCurrentPosition.bind(navigator.geolocation),originalWatchPosition=navigator.geolocation.watchPosition.bind(navigator.geolocation),originalPermissionsQuery=navigator.permissions.query.bind(navigator.permissions),reloadHostnames=["tv.youtube.com"];let fakeGeo=!0,genLat=38.883333,genLon=-77,geolocationPermissionPrompted=!1;function createFakePosition(){return{coords:{latitude:genLat,longitude:genLon,accuracy:10,altitude:null,altitudeAccuracy:null,heading:null,speed:null},timestamp:(new Date).getTime()}}function waitGetCurrentPosition(){void 0!==fakeGeo?!0===fakeGeo?geolocationPermissionPrompted?originalGetCurrentPosition((()=&gt;{geolocationPermissionPrompted=!1,geolocationProxy.tmp_successCallback(createFakePosition()),reloadHostnames.includes(window.location.hostname)&amp;&amp;window.location.reload()}),geolocationProxy.tmp_errorCallback,geolocationProxy.tmp_options):geolocationProxy.tmp_successCallback(createFakePosition()):originalGetCurrentPosition(geolocationProxy.tmp_successCallback,geolocationProxy.tmp_errorCallback,geolocationProxy.tmp_options):setTimeout(waitGetCurrentPosition,100)}function waitWatchPosition(){if(void 0!==fakeGeo)return!0===fakeGeo?(geolocationProxy.tmp2_successCallback(createFakePosition()),Math.floor(1e4*Math.random())):originalWatchPosition(geolocationProxy.tmp2_successCallback,geolocationProxy.tmp2_errorCallback,geolocationProxy.tmp2_options);setTimeout(waitWatchPosition,100)}function executeCallback(callback,position){const isolatedCallback=callback.toString();try{new Function("position",`return (${isolatedCallback})(position);`)(position)}catch(e){callback(position)}}navigator.permissions.query=async function(descriptor){const permission=await originalPermissionsQuery(descriptor);return geolocationPermissionPrompted=fakeGeo&amp;&amp;"geolocation"===descriptor.name&amp;&amp;"prompt"===permission.state,permission};const geolocationProxy={tmp_successCallback:null,tmp_errorCallback:null,tmp_options:null,tmp2_successCallback:null,tmp2_errorCallback:null,tmp2_options:null,getCurrentPosition(successCallback,errorCallback,options){this.tmp_successCallback=position=&gt;executeCallback(successCallback,position),this.tmp_errorCallback=errorCallback,this.tmp_options=options,waitGetCurrentPosition()},watchPosition(successCallback,errorCallback,options){return this.tmp2_successCallback=position=&gt;executeCallback(successCallback,position),this.tmp2_errorCallback=errorCallback,this.tmp2_options=options,waitWatchPosition()}};Object.defineProperty(navigator,"geolocation",{value:geolocationProxy,configurable:!1,writable:!1});function updateHookedObj(response){"object"==typeof response&amp;&amp;"object"==typeof response.coords&amp;&amp;(genLat=response.coords.lat,genLon=response.coords.lon,fakeGeo=response.fakeIt)}Blob=function(_Blob){function secureBlob(...args){const injectableMimeTypes=[{mime:"text/html",useXMLparser:!1},{mime:"application/xhtml+xml",useXMLparser:!0},{mime:"text/xml",useXMLparser:!0},{mime:"application/xml",useXMLparser:!0},{mime:"image/svg+xml",useXMLparser:!0}];let typeEl=args.find((arg=&gt;"object"==typeof arg&amp;&amp;"string"==typeof arg.type&amp;&amp;arg.type));if(void 0!==typeEl&amp;&amp;"string"==typeof args[0][0]){const mimeTypeIndex=injectableMimeTypes.findIndex((mimeType=&gt;mimeType.mime.toLowerCase()===typeEl.type.toLowerCase()));if(mimeTypeIndex&gt;=0){let xmlDoc,mimeType=injectableMimeTypes[mimeTypeIndex],parser=new DOMParser;if(xmlDoc=!0===mimeType.useXMLparser?parser.parseFromString(args[0].join(""),mimeType.mime):parser.parseFromString(args[0][0],mimeType.mime),0===xmlDoc.getElementsByTagName("parsererror").length){if("image/svg+xml"===typeEl.type){const scriptElem=xmlDoc.createElementNS("http://www.w3.org/2000/svg","script");scriptElem.setAttributeNS(null,"type","application/ecmascript"),scriptElem.innerHTML=`(${hookGeo})();`,xmlDoc.documentElement.insertBefore(scriptElem,xmlDoc.documentElement.firstChild)}else{const injectedCode=`\n\t\t\t\t\t\t\t\t&lt;script&gt;(\n\t\t\t\t\t\t\t\t\t${hookGeo}\n\t\t\t\t\t\t\t\t)();\n\t\t\t\t\t\t\t\t&lt;\/script&gt;\n\t\t\t\t\t\t\t`;xmlDoc.documentElement.insertAdjacentHTML("afterbegin",injectedCode)}!0===mimeType.useXMLparser?args[0]=[(new XMLSerializer).serializeToString(xmlDoc)]:args[0][0]=xmlDoc.documentElement.outerHTML}}}return((constructor,args)=&gt;{const bind=Function.bind;return new(bind.bind(bind)(constructor,null).apply(null,args))})(_Blob,args)}let propNames=Object.getOwnPropertyNames(_Blob);for(let i=0;i&lt;propNames.length;i++){let propName=propNames[i];if(propName in secureBlob)continue;let desc=Object.getOwnPropertyDescriptor(_Blob,propName);Object.defineProperty(secureBlob,propName,desc)}return secureBlob.prototype=_Blob.prototype,secureBlob}(Blob),"undefined"!=typeof chrome?setInterval((()=&gt;{chrome.runtime.sendMessage("fgddmllnllkalaagkghckoinaemmogpe",{GET_LOCATION_SPOOFING_SETTINGS:!0},(response=&gt;{updateHookedObj(response)}))}),500):void 0!==eventName&amp;&amp;document.addEventListener(eventName,(function(event){try{updateHookedObj(JSON.parse(event.detail))}catch(ex){}}))})();</script>
<path fill="#000000" opacity="1.000000" stroke="none" d=" M274.197357,434.844666   C243.775940,410.209076 221.419739,380.190186 210.054703,342.892487   C188.799591,273.137726 206.389313,196.127899 266.415131,145.442245   C294.203186,121.978088 325.892883,107.439552 362.075989,104.032814   C401.167358,100.352242 437.504517,109.329437 470.410950,131.095261   C511.955170,158.574493 535.807861,197.849350 544.840637,246.100433   C555.965820,305.528503 544.125488,360.220398 507.993164,409.172943   C505.132233,413.048920 502.021362,416.816376 498.563477,420.154449   C495.098114,423.499725 491.051971,426.243439 486.902466,429.534698   C500.738464,445.469513 514.174866,457.742615 533.322510,461.709381   C543.845642,463.889465 554.278870,463.662384 564.062073,458.760162   C576.182617,452.686737 583.519531,442.814026 583.706665,429.118500   C584.121094,398.796570 583.923279,368.465942 583.932434,338.138855   C583.951233,275.647919 583.962769,213.156998 583.910400,150.666122   C583.905579,144.857407 584.149353,139.036148 582.951416,133.245499   C581.437134,125.925659 577.139160,121.057510 570.574646,117.955231   C563.844055,114.774475 556.707214,113.415375 549.291260,113.210617   C546.905212,113.144737 544.257202,113.804024 542.089294,111.478493   C545.086487,109.046074 548.531250,109.947983 551.656616,110.015549   C584.644165,110.728577 617.634766,110.548737 650.625427,110.610672   C669.106934,110.645370 687.597290,109.663559 706.068420,110.722763   C732.615479,112.245049 757.910278,117.814926 779.101929,135.213272   C795.074402,148.326691 802.907776,165.687057 804.250122,186.074280   C806.914185,226.535355 781.167053,255.471909 747.146484,270.308228   C741.636353,272.711182 735.977905,274.690460 730.118103,276.009460   C724.447083,277.286011 718.728455,278.351349 712.971802,280.150879   C719.889709,281.000549 726.840393,281.644135 733.719788,282.736603   C759.844238,286.885162 782.878967,297.233917 800.496277,317.555756   C832.346436,354.295288 830.620605,423.633209 777.988586,454.239990   C760.172424,464.600555 740.953918,470.170105 720.421570,470.223663   C647.932129,470.412781 575.441772,470.347717 502.951965,470.253174   C484.482635,470.229065 467.481506,465.080688 452.540588,454.332703   C433.290283,464.595825 412.963867,469.821991 391.417114,471.432953   C347.546082,474.713043 309.124054,461.118378 274.197357,434.844666  M491.613098,341.196228   C492.075958,338.241547 492.435242,335.266235 493.017761,332.335327   C498.748474,303.502991 500.028870,274.538239 494.570007,245.568909   C487.510193,208.103653 472.647186,174.329681 447.957916,144.737961   C418.912079,109.924576 372.059753,103.356171 336.523468,119.649513   C309.463837,132.056305 290.793304,152.618652 277.553406,178.472092   C253.931656,224.598145 246.310165,273.237030 256.215515,324.338165   C262.520538,356.865509 273.258881,387.671082 292.500641,414.993530   C307.218811,435.892639 325.349457,452.579041 350.511963,460.147614   C364.098541,464.234314 377.956726,464.921417 392.020599,463.786194   C409.124664,462.405579 425.354523,457.941223 440.977722,450.763794   C437.673309,449.805359 434.497162,449.055542 431.440338,447.969879   C410.547699,440.549286 393.531677,427.424957 378.170502,411.807404   C363.509491,396.901764 351.081451,380.218781 338.837097,363.355255   C326.629852,346.542725 312.151062,332.670410 290.928345,327.988190   C290.193268,327.826050 289.303436,327.502106 289.225037,326.522858   C289.555695,325.684906 290.256256,325.707062 290.886169,325.690308   C314.940643,325.051300 339.015381,324.152832 362.934875,327.742279   C379.290863,330.196686 394.496399,335.827026 408.197784,345.242065   C427.235199,358.323883 442.423187,375.292969 456.681946,393.210022   C460.775299,398.353516 465.003265,403.389893 469.181091,408.489502   C471.652771,406.681915 472.077637,404.473907 472.921783,402.534790   C481.394226,383.071930 486.987000,362.723114 491.613098,341.196228  M636.364929,365.499939   C636.359131,395.992706 636.451721,426.486176 636.244568,456.977570   C636.212463,461.709106 637.805847,462.941193 642.267578,462.891907   C660.927612,462.685760 679.600647,463.148041 698.250488,462.660004   C725.842529,461.937927 746.668274,448.755554 760.484802,425.380585   C775.002991,400.818604 776.185364,374.221283 768.763855,347.158569   C760.354614,316.493652 733.584473,286.018707 690.958496,286.318695   C674.796570,286.432434 658.630554,286.470825 642.471802,286.210602   C637.624512,286.132568 636.195618,287.748779 636.237732,292.517975   C636.449463,316.510498 636.353455,340.505676 636.364929,365.499939  M720.954163,268.468994   C729.299988,263.629303 736.359375,257.357819 741.704895,249.308151   C759.602112,222.357330 760.952698,193.771271 748.527954,164.620819   C738.135864,140.239136 720.003540,124.265816 693.203918,119.813087   C675.518005,116.874580 657.626892,118.637978 639.825073,118.418510   C636.045532,118.371918 636.328552,121.192215 636.328979,123.725624   C636.337891,173.385071 636.379272,223.044571 636.299927,272.703888   C636.293884,276.494324 637.358948,278.104980 641.380676,278.045044   C657.374695,277.806580 673.386536,278.184174 689.363342,277.580017   C700.237671,277.168854 710.737427,274.369324 720.954163,268.468994  z"/>
</svg>